<svg width="24" height="22" viewBox="0 0 24 22" fill="none" xmlns="http://www.w3.org/2000/svg">
<path fill-rule="evenodd" clip-rule="evenodd" d="M6.75016 0.5C3.20634 0.5 0.333496 3.37284 0.333496 6.91667V15.0833C0.333496 18.6272 3.20634 21.5 6.75016 21.5H17.2502C20.794 21.5 23.6668 18.6272 23.6668 15.0833V6.91667C23.6668 3.37284 20.794 0.5 17.2502 0.5H6.75016ZM7.62516 5.75C8.10841 5.75 8.50016 6.14175 8.50016 6.625C8.50016 7.10825 8.10841 7.5 7.62516 7.5H4.7085C4.22525 7.5 3.8335 7.10825 3.8335 6.625C3.8335 6.14175 4.22525 5.75 4.7085 5.75H7.62516ZM8.50016 15.9583C8.50016 15.4751 8.10841 15.0833 7.62516 15.0833H4.7085C4.22525 15.0833 3.8335 15.4751 3.8335 15.9583C3.8335 16.4416 4.22525 16.8333 4.7085 16.8333H7.62516C8.10841 16.8333 8.50016 16.4416 8.50016 15.9583ZM6.4585 10.4167C6.94175 10.4167 7.3335 10.8084 7.3335 11.2917C7.3335 11.7749 6.94175 12.1667 6.4585 12.1667H4.7085C4.22525 12.1667 3.8335 11.7749 3.8335 11.2917C3.8335 10.8084 4.22525 10.4167 4.7085 10.4167H6.4585ZM16.697 6.30653C16.287 5.93443 15.7065 5.98431 15.4416 6.27158C15.1283 6.61147 15.1175 7.15571 15.4918 7.56175C15.7588 7.85138 16.2979 7.90032 16.709 7.51579C17.0253 7.2199 17.0618 6.68544 16.697 6.30653ZM17.8997 5.03512C16.9049 4.10916 15.1903 3.96229 14.1549 5.08547C13.1638 6.1606 13.275 7.73889 14.2051 8.74787C15.2425 9.87326 16.9108 9.72325 17.9044 8.79383C18.988 7.78026 18.9557 6.10243 17.9322 5.06657L17.916 5.05054L17.8997 5.03512ZM12.8752 13.0417C12.8752 12.3973 13.3975 11.875 14.0418 11.875H18.1252C18.7695 11.875 19.2918 12.3973 19.2918 13.0417V13.9167C19.2918 15.0442 18.3777 15.9583 17.2502 15.9583H14.9168C13.7892 15.9583 12.8752 15.0442 12.8752 13.9167V13.0417ZM14.0418 10.125C12.431 10.125 11.1252 11.4308 11.1252 13.0417V13.9167C11.1252 16.0107 12.8227 17.7083 14.9168 17.7083H17.2502C19.3442 17.7083 21.0418 16.0107 21.0418 13.9167V13.0417C21.0418 11.4308 19.736 10.125 18.1252 10.125H14.0418Z" fill="#DADEE2"/>
</svg>
