<svg width="16" height="16" viewBox="0 0 16 16" fill="none" xmlns="http://www.w3.org/2000/svg">
<circle cx="8" cy="4" r="2" stroke="#F9FAFB"/>
<circle cx="12.6668" cy="4.66665" r="1.33333" stroke="#F9FAFB"/>
<circle cx="3.33333" cy="4.66665" r="1.33333" stroke="#F9FAFB"/>
<path d="M4.25 9.875C4.25 8.83947 5.08947 8 6.125 8V8H9.875V8C10.9105 8 11.75 8.83947 11.75 9.875V11C11.75 12.6569 10.4069 14 8.75 14H7.25C5.59315 14 4.25 12.6569 4.25 11V9.875Z" stroke="#F9FAFB"/>
<path d="M3.2085 8V8C2.17296 8 1.3335 8.83947 1.3335 9.875V12C1.3335 13.1046 2.22893 14 3.3335 14V14H3.66683" stroke="#F9FAFB" stroke-linecap="round"/>
<path d="M12.7915 8V8C13.827 8 14.6665 8.83947 14.6665 9.875V12C14.6665 13.1046 13.7711 14 12.6665 14V14H12.3332" stroke="#F9FAFB" stroke-linecap="round"/>
</svg>
