<svg width="69" height="20" viewBox="0 0 69 20" fill="none" xmlns="http://www.w3.org/2000/svg">
<path d="M0 10C0 4.47715 4.47715 0 10 0H59C64.5228 0 69 4.47715 69 10C69 15.5228 64.5229 20 59 20H10C4.47715 20 0 15.5228 0 10Z" fill="#38C793"/>
<path d="M14.4006 5.27273V6.40625H10.2756V14H8.95881V5.27273H14.4006ZM17.5902 14.1321C16.9766 14.1321 16.4411 13.9915 15.9837 13.7102C15.5263 13.429 15.1712 13.0355 14.9183 12.5298C14.6655 12.0241 14.5391 11.4332 14.5391 10.7571C14.5391 10.0781 14.6655 9.48437 14.9183 8.97585C15.1712 8.46733 15.5263 8.07244 15.9837 7.79119C16.4411 7.50994 16.9766 7.36932 17.5902 7.36932C18.2038 7.36932 18.7393 7.50994 19.1967 7.79119C19.6541 8.07244 20.0092 8.46733 20.2621 8.97585C20.5149 9.48437 20.6413 10.0781 20.6413 10.7571C20.6413 11.4332 20.5149 12.0241 20.2621 12.5298C20.0092 13.0355 19.6541 13.429 19.1967 13.7102C18.7393 13.9915 18.2038 14.1321 17.5902 14.1321ZM17.5945 13.0625C17.9922 13.0625 18.3217 12.9574 18.5831 12.7472C18.8445 12.5369 19.0376 12.2571 19.1626 11.9077C19.2905 11.5582 19.3544 11.1733 19.3544 10.7528C19.3544 10.3352 19.2905 9.9517 19.1626 9.60227C19.0376 9.25 18.8445 8.96733 18.5831 8.75426C18.3217 8.54119 17.9922 8.43466 17.5945 8.43466C17.1939 8.43466 16.8615 8.54119 16.5973 8.75426C16.3359 8.96733 16.1413 9.25 16.0135 9.60227C15.8885 9.9517 15.826 10.3352 15.826 10.7528C15.826 11.1733 15.8885 11.5582 16.0135 11.9077C16.1413 12.2571 16.3359 12.5369 16.5973 12.7472C16.8615 12.9574 17.1939 13.0625 17.5945 13.0625ZM21.2752 8.55398V7.45455H26.7979V8.55398H24.663V14H23.4187V8.55398H21.2752ZM30.598 14.1321C29.9844 14.1321 29.4489 13.9915 28.9915 13.7102C28.5341 13.429 28.179 13.0355 27.9261 12.5298C27.6733 12.0241 27.5469 11.4332 27.5469 10.7571C27.5469 10.0781 27.6733 9.48437 27.9261 8.97585C28.179 8.46733 28.5341 8.07244 28.9915 7.79119C29.4489 7.50994 29.9844 7.36932 30.598 7.36932C31.2116 7.36932 31.7472 7.50994 32.2045 7.79119C32.6619 8.07244 33.017 8.46733 33.2699 8.97585C33.5227 9.48437 33.6491 10.0781 33.6491 10.7571C33.6491 11.4332 33.5227 12.0241 33.2699 12.5298C33.017 13.0355 32.6619 13.429 32.2045 13.7102C31.7472 13.9915 31.2116 14.1321 30.598 14.1321ZM30.6023 13.0625C31 13.0625 31.3295 12.9574 31.5909 12.7472C31.8523 12.5369 32.0455 12.2571 32.1705 11.9077C32.2983 11.5582 32.3622 11.1733 32.3622 10.7528C32.3622 10.3352 32.2983 9.9517 32.1705 9.60227C32.0455 9.25 31.8523 8.96733 31.5909 8.75426C31.3295 8.54119 31 8.43466 30.6023 8.43466C30.2017 8.43466 29.8693 8.54119 29.6051 8.75426C29.3438 8.96733 29.1491 9.25 29.0213 9.60227C28.8963 9.9517 28.8338 10.3352 28.8338 10.7528C28.8338 11.1733 28.8963 11.5582 29.0213 11.9077C29.1491 12.2571 29.3438 12.5369 29.6051 12.7472C29.8693 12.9574 30.2017 13.0625 30.6023 13.0625ZM35.0714 14V7.45455H37.7859C38.5245 7.45455 39.1097 7.61222 39.5415 7.92756C39.9734 8.24006 40.1893 8.66477 40.1893 9.2017C40.1893 9.58523 40.0671 9.8892 39.8228 10.1136C39.5785 10.3381 39.2546 10.4886 38.8512 10.5653C39.1438 10.5994 39.4123 10.6875 39.6566 10.8295C39.9009 10.9687 40.0969 11.1562 40.2447 11.392C40.3952 11.6278 40.4705 11.9091 40.4705 12.2358C40.4705 12.5824 40.381 12.8892 40.2021 13.1562C40.0231 13.4205 39.7631 13.6278 39.4222 13.7784C39.0842 13.9261 38.6765 14 38.1992 14H35.0714ZM36.2688 12.9347H38.1992C38.5146 12.9347 38.7617 12.8594 38.9407 12.7088C39.1197 12.5582 39.2092 12.3537 39.2092 12.0952C39.2092 11.7912 39.1197 11.5526 38.9407 11.3793C38.7617 11.2031 38.5146 11.1151 38.1992 11.1151H36.2688V12.9347ZM36.2688 10.1818H37.7987C38.0373 10.1818 38.2418 10.1477 38.4123 10.0795C38.5856 10.0114 38.7177 9.91477 38.8086 9.78977C38.9023 9.66193 38.9492 9.51136 38.9492 9.33807C38.9492 9.08523 38.8455 8.88778 38.6381 8.74574C38.4308 8.60369 38.1467 8.53267 37.7859 8.53267H36.2688V10.1818ZM44.6254 14.1321C44.0117 14.1321 43.4762 13.9915 43.0188 13.7102C42.5614 13.429 42.2063 13.0355 41.9535 12.5298C41.7006 12.0241 41.5742 11.4332 41.5742 10.7571C41.5742 10.0781 41.7006 9.48437 41.9535 8.97585C42.2063 8.46733 42.5614 8.07244 43.0188 7.79119C43.4762 7.50994 44.0117 7.36932 44.6254 7.36932C45.239 7.36932 45.7745 7.50994 46.2319 7.79119C46.6893 8.07244 47.0444 8.46733 47.2972 8.97585C47.5501 9.48437 47.6765 10.0781 47.6765 10.7571C47.6765 11.4332 47.5501 12.0241 47.2972 12.5298C47.0444 13.0355 46.6893 13.429 46.2319 13.7102C45.7745 13.9915 45.239 14.1321 44.6254 14.1321ZM44.6296 13.0625C45.0273 13.0625 45.3569 12.9574 45.6183 12.7472C45.8796 12.5369 46.0728 12.2571 46.1978 11.9077C46.3256 11.5582 46.3896 11.1733 46.3896 10.7528C46.3896 10.3352 46.3256 9.9517 46.1978 9.60227C46.0728 9.25 45.8796 8.96733 45.6183 8.75426C45.3569 8.54119 45.0273 8.43466 44.6296 8.43466C44.229 8.43466 43.8967 8.54119 43.6325 8.75426C43.3711 8.96733 43.1765 9.25 43.0487 9.60227C42.9237 9.9517 42.8612 10.3352 42.8612 10.7528C42.8612 11.1733 42.9237 11.5582 43.0487 11.9077C43.1765 12.2571 43.3711 12.5369 43.6325 12.7472C43.8967 12.9574 44.229 13.0625 44.6296 13.0625Z" fill="white"/>
<path d="M59.6002 8.80002H63.8002L58.4002 16.6V11.2H54.2002L59.6002 3.40002V8.80002Z" fill="white"/>
</svg>
