<svg width="15" height="14" viewBox="0 0 15 14" fill="none" xmlns="http://www.w3.org/2000/svg">
<path d="M1.76373 7C1.76373 3.8324 4.31019 1.26356 7.50016 1.26356C9.43028 1.26356 10.8789 2.06604 11.8542 2.87963C12.2338 3.19631 12.5396 3.51311 12.771 3.78139H10.9482C10.6913 3.78139 10.4831 3.98963 10.4831 4.24651C10.4831 4.50338 10.6913 4.71162 10.9482 4.71162H13.7017C13.9586 4.71162 14.1668 4.50338 14.1668 4.24651V1.14573C14.1668 0.888855 13.9586 0.680615 13.7017 0.680615C13.4448 0.680615 13.2366 0.888855 13.2366 1.14573V2.90822C13.0169 2.6737 12.7548 2.41954 12.45 2.16532C11.3587 1.25488 9.70648 0.333328 7.50016 0.333328C3.79401 0.333328 0.833496 3.32108 0.833496 7C0.833496 7.25687 1.04174 7.46511 1.29861 7.46511C1.55549 7.46511 1.76373 7.25687 1.76373 7Z" fill="#101214"/>
<path d="M14.1668 7C14.1668 6.74312 13.9586 6.53488 13.7017 6.53488C13.4448 6.53488 13.2366 6.74312 13.2366 7C13.2366 10.1664 10.6665 12.7364 7.50016 12.7364C5.95006 12.7364 4.67878 11.9552 3.77233 11.133C3.41857 10.8121 3.12676 10.4906 2.90302 10.2186H4.79009C5.04696 10.2186 5.2552 10.0104 5.2552 9.75348C5.2552 9.49661 5.04696 9.28837 4.79009 9.28837H1.98698C1.73011 9.28837 1.52187 9.49661 1.52187 9.75348V12.8543C1.52187 13.1111 1.73011 13.3194 1.98698 13.3194C2.24386 13.3194 2.4521 13.1111 2.4521 12.8543V11.1212C2.65114 11.3435 2.88344 11.5826 3.14737 11.822C4.14171 12.7239 5.62701 13.6667 7.50016 13.6667C11.1803 13.6667 14.1668 10.6801 14.1668 7Z" fill="#101214"/>
</svg>
